<svg width="22" height="22" viewBox="0 0 22 22" fill="none" xmlns="http://www.w3.org/2000/svg">
	<path d="M17.3329 7.86492H16.2868V5.24412C16.2868 2.35246 13.9343 0 11.0427 0C8.15113 0 5.79861 2.35251 5.79861 5.24412V7.86492H4.75256C3.51051 7.86492 2.5 8.87543 2.5 10.1175V19.7474C2.5 20.9895 3.51051 22 4.75256 22H17.3329C18.575 22 19.5855 20.9895 19.5855 19.7474V10.1175C19.5855 8.87543 18.575 7.86492 17.3331 7.86492H17.3329ZM7.48825 5.24432C7.48825 3.28403 9.08265 1.68963 11.0429 1.68963C13.0032 1.68963 14.5976 3.28403 14.5976 5.24432V7.86512H7.48815L7.48825 5.24432ZM17.896 19.7473C17.896 20.0579 17.6435 20.3104 17.333 20.3104H4.75261C4.44209 20.3104 4.18953 20.0578 4.18953 19.7473V10.1174C4.18953 9.80686 4.4421 9.5543 4.75261 9.5543H17.333C17.6435 9.5543 17.896 9.80687 17.896 10.1174V19.7473Z"
		  fill="#FFFFFF"/>
</svg>
