<?xml version="1.0" encoding="UTF-8" standalone="no"?>
<!-- Created with Inkscape (http://www.inkscape.org/) -->

<svg
		width="343"
		height="124"
		viewBox="0 0 343 124"
		version="1.1"
		id="svg6877"
		xmlns="http://www.w3.org/2000/svg"
>
	<defs
			id="defs6874"/>
	<g
			id="layer1">
		<g
				id="g13382"
				transform="translate(-16.252385,-116.23024)">
			<g
					aria-label="P A P A"
					transform="scale(1.0308868,0.9700386)"
					id="text7154"
					style="font-weight:bold;font-size:82.4709px;line-height:1.25;font-family:Roboto;-inkscape-font-specification:'Roboto, Bold';fill:#fec301;stroke-width:1.03089">
				<path
						d="m 28.634334,157.79388 v 20.65799 H 16.553636 v -58.63165 h 22.872789 q 6.604115,0 11.59747,2.41614 5.033625,2.41614 7.731647,6.886 2.698023,4.42958 2.698023,10.10751 0,8.61757 -5.919542,13.61092 -5.879273,4.95309 -16.308943,4.95309 z m 0,-9.78537 h 10.792091 q 4.79201,0 7.288688,-2.25506 2.536947,-2.25506 2.536947,-6.44304 0,-4.30878 -2.536947,-6.96654 -2.536947,-2.65775 -7.006805,-2.73829 H 28.634334 Z"
						id="path13426"/>
				<path
						d="m 123.42755,166.37118 h -21.1815 l -4.026895,12.08069 H 85.373346 l 21.825794,-58.63165 h 11.19478 l 21.9466,58.63165 h -12.84581 z m -17.91971,-9.78537 h 14.65792 l -7.36923,-21.9466 z"
						id="path13428"/>
				<path
						d="m 178.59607,157.79388 v 20.65799 h -12.0807 v -58.63165 h 22.87279 q 6.60411,0 11.59747,2.41614 5.03362,2.41614 7.73164,6.886 2.69803,4.42958 2.69803,10.10751 0,8.61757 -5.91955,13.61092 -5.87927,4.95309 -16.30894,4.95309 z m 0,-9.78537 h 10.79209 q 4.79201,0 7.28868,-2.25506 2.53695,-2.25506 2.53695,-6.44304 0,-4.30878 -2.53695,-6.96654 -2.53694,-2.65775 -7.0068,-2.73829 h -11.07397 z"
						id="path13430"/>
				<path
						d="M 273.38929,166.37118 H 252.2078 l -4.0269,12.08069 h -12.84581 l 21.8258,-58.63165 h 11.19478 l 21.9466,58.63165 h -12.84581 z m -17.9197,-9.78537 h 14.65791 l -7.36922,-21.9466 z"
						id="path13432"/>
			</g>
			<g
					aria-label="MOBILE"
					id="text7598"
					style="font-weight:bold;font-size:80px;line-height:1.25;font-family:Roboto;-inkscape-font-specification:'Roboto, Bold';fill:#fec301">
				<path
						d="m 31.564885,182.05338 14.609375,41.25 14.53125,-41.25 h 15.390625 v 56.875 H 64.338323 V 223.3815 l 1.171875,-26.83594 -15.351563,42.38282 H 42.11176 l -15.3125,-42.34375 1.171875,26.79687 v 15.54688 h -11.71875 v -56.875 z"
						id="path13435"/>
				<path
						d="m 133.12739,211.77994 q 0,8.39844 -2.96875,14.72656 -2.96875,6.32813 -8.51563,9.76563 -5.50781,3.4375 -12.65625,3.4375 -7.07031,0 -12.617187,-3.39844 -5.546875,-3.39844 -8.59375,-9.6875 -3.046875,-6.32813 -3.085938,-14.53125 v -2.8125 q 0,-8.39844 3.007813,-14.76563 3.046875,-6.40625 8.554687,-9.80468 5.546875,-3.4375 12.656255,-3.4375 7.10937,0 12.61718,3.4375 5.54688,3.39843 8.55469,9.80468 3.04688,6.36719 3.04688,14.72657 z m -11.875,-2.57813 q 0,-8.94531 -3.20313,-13.59375 -3.20312,-4.64843 -9.14062,-4.64843 -5.89844,0 -9.101567,4.60937 -3.203125,4.57031 -3.242188,13.4375 v 2.77344 q 0,8.71094 3.203125,13.51562 3.20313,4.80469 9.21875,4.80469 5.89844,0 9.0625,-4.60937 3.16406,-4.64844 3.20313,-13.51563 z"
						id="path13437"/>
				<path
						d="m 141.72114,238.92838 v -56.875 h 19.92187 q 10.35156,0 15.70313,3.98437 5.35156,3.94531 5.35156,11.60156 0,4.17969 -2.14844,7.38282 -2.14844,3.16406 -5.97656,4.64843 4.375,1.09375 6.875,4.41407 2.53906,3.32031 2.53906,8.125 0,8.20312 -5.23437,12.42187 -5.23438,4.21875 -14.92188,4.29688 z m 11.71875,-24.76563 v 15.35156 h 10.03906 q 4.14062,0 6.44531,-1.95312 2.34375,-1.99219 2.34375,-5.46875 0,-7.8125 -8.08594,-7.92969 z m 0,-8.28125 h 8.67187 q 8.86719,-0.15625 8.86719,-7.07031 0,-3.86719 -2.26563,-5.54688 -2.22656,-1.71875 -7.07031,-1.71875 h -8.20312 z"
						id="path13439"/>
				<path
						d="m 205.27582,238.92838 h -11.71875 v -56.875 h 11.71875 z"
						id="path13441"/>
				<path
						d="m 227.81489,229.51431 h 24.88281 v 9.41407 h -36.60156 v -56.875 h 11.71875 z"
						id="path13443"/>
				<path
						d="m 293.59614,214.27994 h -22.5 v 15.23437 h 26.40625 v 9.41407 h -38.125 v -56.875 h 38.04687 v 9.49218 h -26.32812 v 13.55469 h 22.5 z"
						id="path13445"/>
			</g>
			<g
					aria-label="X"
					transform="scale(0.68625865,1.4571765)"
					id="text8052"
					style="font-weight:bold;font-size:118.041px;line-height:1.25;font-family:Roboto;-inkscape-font-specification:'Roboto, Bold';fill:#fec301;stroke-width:2.95103">
				<path
						d="M 487.07404,108.69805 502.809,79.764171 h 19.88483 l -24.43817,41.614059 25.07218,42.30571 h -20.11538 l -16.13842,-29.39497 -16.13842,29.39497 h -20.11539 l 25.07219,-42.30571 -24.43818,-41.614059 h 19.88484 z"
						id="path13448"/>
			</g>
		</g>
	</g>
</svg>
