<?xml version="1.0" encoding="UTF-8" standalone="no"?>
<svg
   width="456"
   height="456"
   viewBox="0 0 456 456"
   version="1.1"
   id="svg26"
   xmlns="http://www.w3.org/2000/svg"
   xmlns:svg="http://www.w3.org/2000/svg">
  <defs
     id="defs30" />
  <g
     id="g1130"
     transform="matrix(1.4436489,0,0,1.4436492,-101.15201,-101.15096)">
    <path
       d="m 227.79,70.192 c -22.483,0.27866 -39.481,22.849 -54.342,33.118 -17.026,14.033 -33.437,19.437 -44.441,21.415 l 21.289,60.727 0.47675,10.305 c -17.69,16.701 0.84033,28.31 7.683,28.312 2.891,23.639 15.869,38.199 31.345,50.511 l -0.84249,26.753 c -63.113,19.516 -82.341,49.78 -83.507,84.466 82.49,-1.0066 162.6,0 245.1,0 -1.0798,-35.338 -21.511,-65.688 -83.96,-85.209 l -0.47625,-26.896 c 16.203,-10.658 27.716,-25.792 29.99,-49.745 8.5308,1.0053 25.895,-15.439 8.3305,-28.324 l -0.23811,-10.235 23.087,-53.077 c -9.1133,-0.91434 -19.296,-3.2755 -39.034,-18.565 -26.6,-25.751 -43.499,-43.535 -60.455,-43.557 z"
       fill="#fecc4f"
       stroke="#fecc4f"
       stroke-width="1.3578px"
       id="path4" />
    <path
       d="m 227.79,70.19 c -2.7908,0.03463 -5.4974,0.41339 -8.1255,1.0687 v 43.624 h -23.242 v 17.105 h 23.242 v 55.033 h 15.405 v -55.033 h 23.212 v -17.105 h -23.212 V 71.2667 C 232.6254,70.56954 230.2081,70.1931 227.79,70.19 Z"
       fill="#feb301"
       id="path6" />
    <circle
       cx="197.00999"
       cy="208.75"
       r="7.1041999"
       fill="#784719"
       id="circle8" />
    <circle
       cx="258.62"
       cy="208.74001"
       r="7.1041999"
       fill="#784719"
       id="circle10" />
    <path
       d="m 150.78,195.76 c -17.69,16.701 0.84,28.309 7.6826,28.312 l 0.21481,-22.173 z"
       fill="#fea627"
       stroke="#fea627"
       stroke-width="1.3578px"
       id="path12" />
    <path
       d="m 304.43,195.63 -8.0937,7.8948 -0.23868,20.428 c 8.5308,1.0053 25.897,-15.437 8.3324,-28.323 z"
       fill="#fea627"
       stroke="#fea627"
       stroke-width="1.3578px"
       id="path14" />
    <path
       d="m 220.46,385.29 0.21041,-47.124 c -19.738,0.53155 -40.939,-6.4243 -64.185,-23.849 l 16.865,-7.6666 c 47.714,28.586 80.13,18.057 109.4,-0.52087 l 17.807,7.4849 c -18.23,10.58 -30.176,22.966 -65.074,24.282 l 0.12272,47.799 z"
       fill="#feb301"
       stroke="#feb301"
       stroke-width="1.3578px"
       id="path16" />
    <path
       d="m 189.23,293.25 77.085,-0.32896 -0.20572,-19.229 c -21.704,11.663 -44.166,21.018 -76.31,0.8857 z"
       fill="#ff9800"
       stroke="#ff9800"
       stroke-width="1.3578px"
       id="path18" />
    <path
       d="m 165.72,207.99 -0.23608,-22.554 -15.182,0.021 0.47675,10.305 z"
       fill="#8ea2ac"
       stroke="#8ea2ac"
       stroke-width="1.3578px"
       id="path20" />
    <path
       d="m 289.35,184.98 14.841,0.41516 0.23811,10.235 -14.847,12.577 z"
       fill="#8ea2ac"
       stroke="#8ea2ac"
       stroke-width="1.3578px"
       id="path22" />
  </g>
</svg>
