<?xml version="1.0" encoding="UTF-8" standalone="no"?>
<svg
		width="456"
		height="456"
		viewBox="0 0 456 456"
		version="1.1"
		id="svg26"
		xmlns="http://www.w3.org/2000/svg"
>
	<defs
			id="defs30"/>
	<g
			id="g1130"
			transform="matrix(1.4436489,0,0,1.4436492,-101.15201,-101.15096)">
		<g
				id="g6842"
				transform="matrix(1.4842598,0,0,1.4842598,-187.56282,-33.930229)">
			<path
					id="path4059"
					style="fill:#fecc4f;fill-opacity:1;stroke-width:1.01787"
					d="M 389.64453,0 372.07227,15.878906 C 345.10223,8.361041 317.71246,10.193127 289.49219,30.445312 282.49206,20.20932 248.1243,16.91911 250.76953,48.255859 l -10.91211,9.96875 -79.65625,25.240235 c 7.65177,10.783496 14.74479,24.102866 16.83594,60.085936 -2.78115,53.37526 -6.09897,88.63516 9.96484,107.10547 l 0.006,0.006 c 21.63494,24.19885 62.32222,21.27834 87.59571,27.70508 31.42315,5.21118 52.87405,17.94061 65.46679,28.03711 l 45.87696,-80.78125 10.75976,-10.29493 c 34.95615,3.40228 30.00574,-27.7754 23.51563,-35.22265 22.97808,-25.57419 26.50784,-53.5106 25.2207,-82.031251 L 458,87.802734 V 0 Z"
					transform="matrix(0.6926892,0,0,0.69268905,70.066905,70.066163)"/>
			<path
					id="rect1341"
					style="fill:#feb301;fill-opacity:1;stroke-width:1.01787"
					d="m 389.9082,0 -17.83203,15.888672 c 33.28288,12.549839 64.77268,28.11288 73.36524,82.189453 l 0.002,-0.002 c -3e-5,-6.53e-4 3e-5,-0.0013 0,-0.002 L 446.85352,96.919922 458,87.785156 V 71.546875 L 395.07227,0 Z"
					transform="matrix(0.6926892,0,0,0.69268905,70.066905,70.066163)"/>
			<path
					d="m 199.60431,243.69824 c 1.86027,2.08067 3.92457,3.8717 6.14572,5.42181 l 32.87937,-28.67054 15.2751,17.51748 12.89202,-11.24174 -15.27509,-17.51748 41.47833,-36.16876 -10.12447,-11.61074 -41.47833,36.16876 -15.25538,-17.49486 -12.89202,11.24174 15.25538,17.49486 -32.87335,28.66529 c 1.08086,2.3003 2.38584,4.36962 3.97272,6.19418 z"
					fill="#feb301"
					id="path6"/>
			<circle
					cx="-345.63904"
					cy="128.83838"
					r="7.1041999"
					fill="#784719"
					id="circle8"
					transform="rotate(-131.08816)"/>
			<circle
					cx="-284.02902"
					cy="128.82838"
					r="7.1041999"
					fill="#784719"
					id="circle10"
					transform="rotate(-131.08816)"/>
			<path
					d="m 344.8588,219.21356 c 24.21374,2.35672 20.78441,-19.23833 16.28958,-24.39756 l -16.85295,14.41062 z"
					fill="#fea627"
					stroke="#fea627"
					stroke-width="1.3578px"
					id="path12"/>
			<path
					d="m 243.77904,103.49312 11.26964,0.9116 15.55343,-13.245791 c -4.84891,-7.09036 -28.65486,-9.373051 -26.82323,12.334301 z"
					fill="#fea627"
					stroke="#fea627"
					stroke-width="1.3578px"
					id="path14"/>
			<path
					d="m 344.25768,199.9155 -16.84378,15.00087 9.99374,11.42886 7.45354,-7.13198 z"
					fill="#8ea2ac"
					stroke="#8ea2ac"
					stroke-width="1.3578px"
					id="path20"/>
			<path
					d="m 245.66301,121.85829 -9.44089,-11.4585 7.55763,-6.90611 19.23701,2.92433 z"
					fill="#8ea2ac"
					stroke="#8ea2ac"
					stroke-width="1.3578px"
					id="path22"/>
		</g>
	</g>
</svg>
