<?xml version="1.0" encoding="UTF-8" standalone="no"?>
<svg
   width="22"
   height="22"
   viewBox="0 0 22 22"
   fill="none"
   version="1.1"
   id="svg2111"
   xmlns="http://www.w3.org/2000/svg"
   xmlns:svg="http://www.w3.org/2000/svg">
  <defs
     id="defs2115" />
  <path
     fill-rule="evenodd"
     clip-rule="evenodd"
     d="M19.8209 14.6745C20.215 13.7473 20.4469 12.7503 20.5164 11.7303H17.5953C17.5489 12.727 17.433 13.7009 17.2244 14.6745H19.8209ZM20.5164 10.2698C20.4469 9.24975 20.215 8.27613 19.8209 7.32561L17.2476 7.32578C17.4562 8.29944 17.5722 9.27305 17.6186 10.27L20.5164 10.2698ZM19.0559 5.86517H16.8767C16.5057 4.6134 15.9262 3.43097 15.1611 2.38781C16.7376 3.17597 18.1054 4.38149 19.0559 5.86517ZM6.88512 2.38781C5.2855 3.15283 3.91778 4.35839 2.96726 5.86517H5.16955C5.5405 4.6365 6.12006 3.45428 6.88508 2.38781H6.88512ZM2.20228 7.34884C1.8082 8.27605 1.57632 9.27297 1.50677 10.293H4.42771C4.47412 9.29628 4.59006 8.32246 4.79866 7.34884H2.20228ZM1.50677 11.7535C1.57631 12.7736 1.80819 13.7472 2.20228 14.6977H4.77553C4.56692 13.724 4.45098 12.7504 4.40457 11.7535H1.50677ZM2.99044 16.1581C3.94096 17.6649 5.30868 18.8705 6.90831 19.6355C6.14329 18.5923 5.56373 17.4099 5.16963 16.1581H2.99044ZM0 11.0117V10.2697H0.0231242C0.394079 4.77551 4.77551 0.394042 10.2697 0.023124V0H11.7303V0.023124C17.2245 0.394079 21.606 4.77551 21.9769 10.2697H22V11.7303H21.9769C21.6059 17.2245 17.2245 21.606 11.7303 21.9769V22H10.2697V21.9769C4.77551 21.6292 0.394042 17.2477 0.0231242 11.7534H0V11.0117ZM15.1381 19.6355C16.7377 18.8705 18.1054 17.6649 19.056 16.1581H16.8537C16.4827 17.3868 15.9032 18.569 15.1381 19.6355H15.1381ZM15.3467 5.86517C14.5585 3.59333 13.2604 1.97061 11.7536 1.57643V5.88835L15.3467 5.86517ZM10.2698 1.57643C8.76298 1.97067 7.46477 3.59342 6.67661 5.86517H10.2699L10.2698 1.57643ZM10.2698 16.1581V20.4701C8.76298 20.0527 7.46477 18.43 6.67661 16.1581H10.2698ZM11.7536 20.4701V16.1581H15.3469C14.5586 18.43 13.2604 20.0527 11.7536 20.4701ZM15.7641 14.6745H11.7536V11.7535H16.1351C16.0887 12.7272 15.9727 13.724 15.7641 14.6745H15.7641ZM10.2699 11.7535V14.6977L6.25937 14.6976C6.05077 13.7239 5.9117 12.7503 5.88841 11.7534L10.2699 11.7535ZM16.135 10.2697H11.7536V7.34876H15.7641C15.9727 8.29927 16.0886 9.29603 16.135 10.2697H16.135ZM10.2699 7.34876V10.293H5.88841C5.93482 9.2962 6.05077 8.32237 6.25937 7.34876H10.2699Z"
     fill="#FEB301"
     id="path2109"
     style="fill:#ffffff;fill-opacity:1" />
</svg>
