<svg width="22" height="22" viewBox="0 0 22 22" fill="none" xmlns="http://www.w3.org/2000/svg">
	<path d="M11.0435 0C8.28136 0 6.02174 2.2597 6.02174 5.02174C6.02174 7.78379 8.28144 10.0435 11.0435 10.0435C13.8055 10.0435 16.0652 7.78379 16.0652 5.02174C16.0652 2.2597 13.8055 0 11.0435 0ZM11.0435 1.91309C12.7718 1.91309 14.1522 3.29356 14.1522 5.02183C14.1522 6.7501 12.7718 8.13057 11.0435 8.13057C9.31521 8.13057 7.93475 6.7501 7.93475 5.02183C7.93475 3.29356 9.31521 1.91309 11.0435 1.91309ZM11.0435 10.5218C5.48071 10.5218 1 15.2698 1 21.0435C1 21.2971 1.10075 21.5405 1.28023 21.7198C1.45955 21.8992 1.70275 22 1.95646 22H20.1304C20.3841 22 20.6273 21.8992 20.8066 21.7198C20.9861 21.5405 21.0868 21.2971 21.0868 21.0435C21.0868 15.2698 16.6061 10.5218 11.0434 10.5218H11.0435ZM11.0435 12.4349C15.2121 12.4349 18.6308 15.7596 19.0843 20.0871H3.00272C3.45609 15.7596 6.87493 12.4349 11.0435 12.4349Z"
		  fill="#FFFFFF"/>
</svg>
