<?xml version="1.0" encoding="UTF-8" standalone="no"?>
<svg width="456" height="456" viewBox="0 0 456 456" version="1.1" xmlns="http://www.w3.org/2000/svg">
	<g>
		<rect x="0" y="0" width="456" height="456" fill="#fffed8"/>
		<path d="m227.79 70.192c-22.483.27866-39.481 22.849-54.342 33.118-17.026 14.033-33.437 19.437-44.441 21.415l21.289 60.727.47675 10.305c-17.69 16.701.84033 28.31 7.683 28.312 2.891 23.639 15.869 38.199 31.345 50.511l-.84249 26.753c-63.113 19.516-82.341 49.78-83.507 84.466 82.49-1.0066 162.6 0 245.1 0-1.0798-35.338-21.511-65.688-83.96-85.209l-.47625-26.896c16.203-10.658 27.716-25.792 29.99-49.745 8.5308 1.0053 25.895-15.439 8.3305-28.324l-.23811-10.235 23.087-53.077c-9.1133-.91434-19.296-3.2755-39.034-18.565-26.6-25.751-43.499-43.535-60.455-43.557z"
			  fill="#fecc4f" stroke="#fecc4f" stroke-width="1.3578px"/>
		<path d="m227.79 70.19c-2.7908.03463-5.4974.41339-8.1255 1.0687v43.624h-23.242v17.105h23.242v55.033h15.405v-55.033h23.212v-17.105h-23.212v-43.616c-2.4441-.69716-4.8614-1.0736-7.2795-1.0767z"
			  fill="#feb301"/>
		<circle cx="197.01" cy="208.75" r="7.1042" fill="#784719"/>
		<circle cx="258.62" cy="208.74" r="7.1042" fill="#784719"/>
		<path d="m150.78 195.76c-17.69 16.701.84 28.309 7.6826 28.312l.21481-22.173z" fill="#fea627" stroke="#fea627"
			  stroke-width="1.3578px"/>
		<path d="m304.43 195.63-8.0937 7.8948-.23868 20.428c8.5308 1.0053 25.897-15.437 8.3324-28.323z" fill="#fea627"
			  stroke="#fea627" stroke-width="1.3578px"/>
		<path d="m220.46 385.29.21041-47.124c-19.738.53155-40.939-6.4243-64.185-23.849l16.865-7.6666c47.714 28.586 80.13 18.057 109.4-.52087l17.807 7.4849c-18.23 10.58-30.176 22.966-65.074 24.282l.12272 47.799z"
			  fill="#feb301" stroke="#feb301" stroke-width="1.3578px"/>
		<path d="m189.23 293.25 77.085-.32896-.20572-19.229c-21.704 11.663-44.166 21.018-76.31.8857z" fill="#ff9800"
			  stroke="#ff9800" stroke-width="1.3578px"/>
		<path d="m165.72 207.99-.23608-22.554-15.182.021.47675 10.305z" fill="#8ea2ac" stroke="#8ea2ac"
			  stroke-width="1.3578px"/>
		<path d="m289.35 184.98 14.841.41516.23811 10.235-14.847 12.577z" fill="#8ea2ac" stroke="#8ea2ac"
			  stroke-width="1.3578px"/>
	</g>
</svg>

